<svg id="Layer_16" data-name="Layer 16" xmlns="http://www.w3.org/2000/svg" xmlns:xlink="http://www.w3.org/1999/xlink" viewBox="0 0 291.24 317.51"><defs><style>.cls-1{fill:url(#radial-gradient);}.cls-2{fill:#191917;}.cls-3{fill:url(#radial-gradient-2);}.cls-4{fill:url(#linear-gradient);}.cls-5{fill:#f4c615;}.cls-17,.cls-6{fill:none;}.cls-7{fill:#feda00;opacity:0.4;}.cls-8{fill:url(#radial-gradient-3);}.cls-9{fill:#eeb92c;}.cls-10{fill:url(#radial-gradient-4);}.cls-11{fill:#efc820;}.cls-12{fill:url(#radial-gradient-5);}.cls-13{fill:url(#linear-gradient-2);}.cls-14{fill:url(#linear-gradient-3);}.cls-15{fill:url(#linear-gradient-4);}.cls-16{fill:#231f20;}.cls-17{stroke:#231f20;stroke-miterlimit:10;}</style><radialGradient id="radial-gradient" cx="141.66" cy="128.21" fx="254.7073493783014" r="113.05" gradientUnits="userSpaceOnUse"><stop offset="0" stop-color="#5c4f29"/><stop offset="0.49" stop-color="#ffd763"/><stop offset="1" stop-color="#a89056"/></radialGradient><radialGradient id="radial-gradient-2" cx="141.66" cy="128.21" fx="28.71182098906897" r="113.05" gradientUnits="userSpaceOnUse"><stop offset="0.01" stop-color="#58595b"/><stop offset="0.49" stop-color="#4d4d4f"/><stop offset="1" stop-color="#2a2a2a"/></radialGradient><linearGradient id="linear-gradient" x1="290.19" y1="296.62" x2="290.19" y2="536.19" gradientUnits="userSpaceOnUse"><stop offset="0" stop-color="#eebf09"/><stop offset="0.19" stop-color="#c39e08"/><stop offset="0.72" stop-color="#ffcd05"/><stop offset="1" stop-color="#a1832f"/></linearGradient><radialGradient id="radial-gradient-3" cx="347.47" cy="416" r="31.66" gradientUnits="userSpaceOnUse"><stop offset="0.01" stop-color="#58595b"/><stop offset="0.49" stop-color="#4d4d4f"/><stop offset="1" stop-color="#333"/></radialGradient><radialGradient id="radial-gradient-4" cx="583.03" cy="249.89" r="31.66" gradientTransform="translate(759.19 74.05) rotate(118.4)" xlink:href="#radial-gradient-3"/><radialGradient id="radial-gradient-5" cx="288.78" cy="112.93" r="31.66" gradientTransform="translate(311.74 672.75) rotate(-120.53)" xlink:href="#radial-gradient-3"/><linearGradient id="linear-gradient-2" x1="332.91" y1="289.22" x2="332.91" y2="466.48" gradientUnits="userSpaceOnUse"><stop offset="0" stop-color="#b39205"/><stop offset="0.37" stop-color="#ffcd05"/><stop offset="1" stop-color="#a1832f"/></linearGradient><linearGradient id="linear-gradient-3" x1="238.96" y1="312.66" x2="238.96" y2="490.45" xlink:href="#linear-gradient-2"/><linearGradient id="linear-gradient-4" x1="303.41" y1="444.53" x2="303.41" y2="476.09" xlink:href="#linear-gradient-2"/></defs><title>objj-logo-vert</title><circle class="cls-1" cx="141.66" cy="128.21" r="113.05"/><path class="cls-2" d="M290.19,544.61A128.21,128.21,0,1,1,418.4,416.4,128.35,128.35,0,0,1,290.19,544.61Zm0-226.09a97.89,97.89,0,1,0,97.89,97.89A98,98,0,0,0,290.19,318.52Z" transform="translate(-148.53 -288.2)"/><circle class="cls-3" cx="141.66" cy="128.21" r="113.05"/><path class="cls-4" d="M290.19,536.19A119.79,119.79,0,1,1,410,416.4,119.92,119.92,0,0,1,290.19,536.19Zm0-226.09A106.31,106.31,0,1,0,396.5,416.4,106.43,106.43,0,0,0,290.19,310.09Z" transform="translate(-148.53 -288.2)"/><path class="cls-5" d="M290.19,526.26A109.86,109.86,0,1,1,400,416.4,110,110,0,0,1,290.19,526.26Zm0-216.35A106.49,106.49,0,1,0,396.67,416.4,106.61,106.61,0,0,0,290.19,309.92Z" transform="translate(-148.53 -288.2)"/><path class="cls-6" d="M294.41,318.45l10.32,24.23h0l45.12,105.95,26.86,13.88A98,98,0,0,0,294.41,318.45Z" transform="translate(-148.53 -288.2)"/><path class="cls-7" d="M384.62,469.08a108.1,108.1,0,0,0-94.43-160.84h-0.48L282,290.51l5.06,17.8a108.09,108.09,0,0,0-92.36,158.81l-11.42,23.33,13.93-18.89a108.08,108.08,0,0,0,185.05,1.57H406ZM192.12,416.4a98.2,98.2,0,0,1,84.8-97.14L208.93,438h0l-9.24,16.14A97.52,97.52,0,0,1,192.12,416.4Zm98.06,98.06a98,98,0,0,1-81.26-43.35l30-20.52,12.63,0.56,86.51,11.91-1.23,10.07h33.2A97.94,97.94,0,0,1,290.19,514.47Zm83.89-47.39-19.78-3.75L234.52,438l-28.39,28.76c-0.82-1.36-1.6-2.75-2.36-4.15l6.25-8.48-0.24-3.52L285.6,318.46c1,0,2.06-.06,3.09-0.08l44.22,136.85,41.55,11.26C374.34,466.69,374.21,466.88,374.08,467.07Zm2.63-4.57-26.86-13.88L304.73,342.68h0l-10.32-24.23A98,98,0,0,1,376.71,462.51Z" transform="translate(-148.53 -288.2)"/><path class="cls-8" d="M341.33,446.1l29.58,8.05-43.8-76.31s-3.36,9.49-3.06,10.2S341.33,446.1,341.33,446.1Z" transform="translate(-148.53 -288.2)"/><path class="cls-9" d="M381.38,462.24l-44.1-12-0.8-2.7c-6.6-22.31-16.64-56.11-17.2-57.82-0.62-1.42-1-2.21,3.07-13.56L326,365.8Zm-36-20.28,15.06,4.1-28.68-50C334.05,403.78,338.12,417.47,345.38,442Z" transform="translate(-148.53 -288.2)"/><path class="cls-10" d="M238.49,448.29l-21.15,22.19,88-2.23s-6.75-7.47-7.52-7.54S238.49,448.29,238.49,448.29Z" transform="translate(-148.53 -288.2)"/><path class="cls-11" d="M205.24,475.84l31.53-33.07,2.76,0.58c22.76,4.8,57.26,12.06,59,12.37,1.55,0.13,2.4.21,10.47,9.15l7.37,8.16Zm35-22-10.77,11.3,57.6-1.46C279.17,462,265.19,459.09,240.2,453.82Z" transform="translate(-148.53 -288.2)"/><path class="cls-12" d="M291.38,356.63l-8.09-29.57-43.48,76.49s9.88-1.92,10.34-2.55S291.38,356.63,291.38,356.63Z" transform="translate(-148.53 -288.2)"/><path class="cls-11" d="M230,410.61l55-96.68L297,358l-1.92,2.06c-15.57,16.71-39,41.89-41,44.09-1,1.41-2,2.13-13.32,4.34Zm51.66-70.42-28.47,50.09c5.46-5.89,15.18-16.35,32.59-35Z" transform="translate(-148.53 -288.2)"/><path class="cls-6" d="M338.09,463.06l-86.51-11.91L239,450.59l-30,20.52a97.84,97.84,0,0,0,161.14,2h-33.2Z" transform="translate(-148.53 -288.2)"/><path class="cls-6" d="M288.69,318.38c-1,0-2.06,0-3.09.08L209.79,450.63l0.24,3.52-6.25,8.48c0.76,1.4,1.54,2.79,2.36,4.15L234.52,438,354.3,463.32l19.78,3.75c0.13-.19.26-0.39,0.38-0.59l-41.55-11.26Z" transform="translate(-148.53 -288.2)"/><path class="cls-13" d="M328.48,390.31l33.69,57.77-14.65-5-19-52.74M281.22,289.22L339.66,451l44.94,15.44L281.22,289.22h0Z" transform="translate(-148.53 -288.2)"/><path class="cls-14" d="M280.91,341.26l2.91,15.21-36.31,42.74,33.4-57.95m4.82-28.6L183.25,490.45l111.4-131.12-8.93-46.67h0Z" transform="translate(-148.53 -288.2)"/><path class="cls-15" d="M239.44,455.31l55.3,9.32-66.87,1,11.58-10.28m-3.09-10.77-35.52,31.55,205.18-3-169.66-28.6h0Z" transform="translate(-148.53 -288.2)"/><path d="M148.53,568.54q0-9.45,5.26-14.71t14.66-5.26q9.63,0,14.85,5.17t5.21,14.49a23.76,23.76,0,0,1-2.28,11.09,16.24,16.24,0,0,1-6.58,6.74,21.72,21.72,0,0,1-10.73,2.41,24.69,24.69,0,0,1-10.81-2.08,16.27,16.27,0,0,1-6.94-6.58A21.85,21.85,0,0,1,148.53,568.54Zm11.92,0.05q0,5.84,2.17,8.4a8.22,8.22,0,0,0,11.86.05q2.1-2.5,2.11-9,0-5.45-2.2-8a7.52,7.52,0,0,0-6-2.51,7.24,7.24,0,0,0-5.79,2.55Q160.45,562.7,160.45,568.59Z" transform="translate(-148.53 -288.2)"/><path d="M217,549.22h11.9v23a19.35,19.35,0,0,1-1.07,6.46,14,14,0,0,1-3.34,5.31,13.33,13.33,0,0,1-4.78,3.2,24,24,0,0,1-8.34,1.29,52.58,52.58,0,0,1-6.15-.39,16.1,16.1,0,0,1-5.57-1.57,14,14,0,0,1-4.09-3.33,12.21,12.21,0,0,1-2.54-4.45,23,23,0,0,1-1.11-6.52v-23h11.9v23.54a6.72,6.72,0,0,0,1.75,4.93,7.54,7.54,0,0,0,9.69,0,6.7,6.7,0,0,0,1.75-5V549.22Z" transform="translate(-148.53 -288.2)"/><path d="M233.13,549.22h36.25v9.53H257.21v29.06H245.29V558.75H233.13v-9.53Z" transform="translate(-148.53 -288.2)"/><path d="M273.77,549.22h11.92v29.09H304.3v9.5H273.77V549.22Z" transform="translate(-148.53 -288.2)"/><path d="M308.2,549.22h12v38.59h-12V549.22Z" transform="translate(-148.53 -288.2)"/><path d="M324.68,549.22h32v8.24h-20v6.13h18.56v7.87H336.63v7.61h20.58v8.74H324.68V549.22Z" transform="translate(-148.53 -288.2)"/><path d="M360.79,587.81V549.22h19.87a28.87,28.87,0,0,1,8.45.95,9,9,0,0,1,4.71,3.51,10.9,10.9,0,0,1-3.35,15.57,14.43,14.43,0,0,1-4.19,1.53,11.9,11.9,0,0,1,3.1,1.42,12.07,12.07,0,0,1,1.91,2,15.18,15.18,0,0,1,1.67,2.4l5.77,11.18H385.27L378.9,576a9,9,0,0,0-2.16-3,5,5,0,0,0-2.92-.89h-1.05v15.66h-12Zm12-23h5a17.9,17.9,0,0,0,3.16-.53,3.15,3.15,0,0,0,1.93-1.21,3.91,3.91,0,0,0-.43-5.11q-1.19-1-4.45-1h-5.24v7.84Z" transform="translate(-148.53 -288.2)"/><path d="M397.48,575l11.34-.71a8.64,8.64,0,0,0,1.5,4.21,6.3,6.3,0,0,0,5.26,2.34,5.82,5.82,0,0,0,3.93-1.2,3.59,3.59,0,0,0,1.38-2.78,3.54,3.54,0,0,0-1.32-2.68q-1.32-1.19-6.11-2.24-7.84-1.76-11.19-4.69a9.42,9.42,0,0,1-3.37-7.45,10.12,10.12,0,0,1,1.72-5.62,11.42,11.42,0,0,1,5.19-4.16,24.21,24.21,0,0,1,9.49-1.51q7.4,0,11.28,2.75t4.62,8.75l-11.24.66a5.25,5.25,0,0,0-5.84-5,4.78,4.78,0,0,0-3.13.88,2.7,2.7,0,0,0-1.05,2.15,2.15,2.15,0,0,0,.87,1.66,9.75,9.75,0,0,0,4,1.42q7.82,1.68,11.2,3.41a11.77,11.77,0,0,1,4.92,4.28,10.84,10.84,0,0,1,1.54,5.71,12.24,12.24,0,0,1-2.05,6.84,12.85,12.85,0,0,1-5.74,4.75,23.19,23.19,0,0,1-9.29,1.62q-9.85,0-13.63-3.79A15,15,0,0,1,397.48,575Z" transform="translate(-148.53 -288.2)"/><path class="cls-16" d="M275.1,594h4.58a13.27,13.27,0,0,1,2,.11,3,3,0,0,1,1.2.47,2.94,2.94,0,0,1,.88,1,2.59,2.59,0,0,1,.35,1.34,2.72,2.72,0,0,1-1.61,2.48,3,3,0,0,1,1.61,1,2.76,2.76,0,0,1,.56,1.73,3.41,3.41,0,0,1-.36,1.52,3.06,3.06,0,0,1-1,1.18,3.28,3.28,0,0,1-1.55.54q-0.58.06-2.79,0.08h-3.9V594Zm2.31,1.91v2.65h1.52q1.35,0,1.68,0a1.53,1.53,0,0,0,.93-0.41,1.21,1.21,0,0,0,.34-0.89,1.26,1.26,0,0,0-.29-0.86,1.33,1.33,0,0,0-.87-0.4q-0.34,0-2,0h-1.33Zm0,4.55v3.06h2.14a10.47,10.47,0,0,0,1.59-.07A1.43,1.43,0,0,0,282,603a1.41,1.41,0,0,0,.32-1,1.49,1.49,0,0,0-.25-0.87,1.42,1.42,0,0,0-.72-0.52,7.86,7.86,0,0,0-2.05-.16h-1.87Z" transform="translate(-148.53 -288.2)"/><path class="cls-16" d="M286.33,605.5V594h4.87a8.32,8.32,0,0,1,2.67.31,2.63,2.63,0,0,1,1.33,1.1,3.3,3.3,0,0,1,.5,1.8,3.06,3.06,0,0,1-.76,2.13,3.64,3.64,0,0,1-2.27,1.06,5.42,5.42,0,0,1,1.24,1,13.07,13.07,0,0,1,1.32,1.86l1.4,2.23h-2.77L292.19,603a16.13,16.13,0,0,0-1.22-1.68,1.78,1.78,0,0,0-.7-0.48,3.81,3.81,0,0,0-1.16-.13h-0.47v4.78h-2.31Zm2.31-6.61h1.71a8.84,8.84,0,0,0,2.08-.14,1.24,1.24,0,0,0,.65-0.48,1.49,1.49,0,0,0,.23-0.86,1.37,1.37,0,0,0-.31-0.93,1.42,1.42,0,0,0-.87-0.45q-0.28,0-1.69,0h-1.8v2.91Z" transform="translate(-148.53 -288.2)"/><path class="cls-16" d="M307.89,605.5h-2.52l-1-2.6h-4.58l-0.95,2.6h-2.45L300.85,594h2.45ZM303.63,601l-1.58-4.25L300.5,601h3.13Z" transform="translate(-148.53 -288.2)"/><path class="cls-16" d="M307.8,605.5v-2.09l6-7.43h-5.34V594h8.38v1.8l-6.27,7.73h6.52v1.93h-9.3Z" transform="translate(-148.53 -288.2)"/><path class="cls-16" d="M318.18,605.5V594h2.31V605.5h-2.31Z" transform="translate(-148.53 -288.2)"/><path class="cls-16" d="M322.43,605.5V594.14h2.31v9.43h5.75v1.93h-8.06Z" transform="translate(-148.53 -288.2)"/><path class="cls-16" d="M331.75,605.5V594h2.31V605.5h-2.31Z" transform="translate(-148.53 -288.2)"/><path class="cls-16" d="M346.28,605.5h-2.52l-1-2.6h-4.58l-0.95,2.6h-2.45L339.25,594h2.45ZM342,601l-1.58-4.25L338.9,601H342Z" transform="translate(-148.53 -288.2)"/><path class="cls-16" d="M347.21,605.5V594h2.25l4.69,7.65V594h2.15V605.5H354L349.36,598v7.47h-2.15Z" transform="translate(-148.53 -288.2)"/><path class="cls-16" d="M366.68,594H369v7.25a7.42,7.42,0,0,1-.25,2.19,3.1,3.1,0,0,1-1.22,1.61,4,4,0,0,1-2.33.61,3.45,3.45,0,0,1-2.61-.95,3.89,3.89,0,0,1-.92-2.79l2.18-.25a3,3,0,0,0,.29,1.39,1.25,1.25,0,0,0,1.14.62,1.26,1.26,0,0,0,1.09-.44,3.48,3.48,0,0,0,.32-1.83V594Z" transform="translate(-148.53 -288.2)"/><path class="cls-16" d="M371.05,605.5V594h2.31V605.5h-2.31Z" transform="translate(-148.53 -288.2)"/><path class="cls-16" d="M375.23,594h2.31v6.2a12.82,12.82,0,0,0,.09,1.91,1.85,1.85,0,0,0,.71,1.13,2.46,2.46,0,0,0,1.53.43,2.33,2.33,0,0,0,1.48-.4,1.59,1.59,0,0,0,.6-1,12.93,12.93,0,0,0,.1-1.95V594h2.31v6a15.45,15.45,0,0,1-.19,2.91,3.23,3.23,0,0,1-.69,1.44,3.49,3.49,0,0,1-1.35.93,5.87,5.87,0,0,1-2.2.35,6.33,6.33,0,0,1-2.49-.38,3.56,3.56,0,0,1-1.34-1,3.15,3.15,0,0,1-.65-1.27,13.89,13.89,0,0,1-.23-2.91V594Z" transform="translate(-148.53 -288.2)"/><path class="cls-16" d="M394.74,594H397v7.25a7.39,7.39,0,0,1-.25,2.19,3.09,3.09,0,0,1-1.22,1.61,4,4,0,0,1-2.33.61,3.45,3.45,0,0,1-2.61-.95,3.89,3.89,0,0,1-.92-2.79l2.18-.25a3,3,0,0,0,.29,1.39,1.25,1.25,0,0,0,1.14.62,1.26,1.26,0,0,0,1.09-.44,3.47,3.47,0,0,0,.32-1.83V594Z" transform="translate(-148.53 -288.2)"/><path class="cls-16" d="M399.12,605.5V594h2.31V605.5h-2.31Z" transform="translate(-148.53 -288.2)"/><path class="cls-16" d="M405.89,605.5V596h-3.4V594h9.1V596H408.2v9.52h-2.31Z" transform="translate(-148.53 -288.2)"/><path class="cls-16" d="M412.18,601.77l2.25-.22a2.75,2.75,0,0,0,.82,1.66,2.49,2.49,0,0,0,1.68.53,2.57,2.57,0,0,0,1.68-.47,1.41,1.41,0,0,0,.57-1.11,1,1,0,0,0-.24-0.69,1.91,1.91,0,0,0-.83-0.5q-0.41-.14-1.85-0.5a6.28,6.28,0,0,1-2.61-1.13,3,3,0,0,1-1.05-2.3,2.94,2.94,0,0,1,.5-1.64,3.11,3.11,0,0,1,1.43-1.16,5.73,5.73,0,0,1,2.25-.4,4.84,4.84,0,0,1,3.25.95,3.34,3.34,0,0,1,1.15,2.52l-2.31.1a2,2,0,0,0-.64-1.27,2.33,2.33,0,0,0-1.46-.39,2.64,2.64,0,0,0-1.58.41,0.83,0.83,0,0,0-.37.71,0.88,0.88,0,0,0,.34.7,6.08,6.08,0,0,0,2.13.77,11.2,11.2,0,0,1,2.5.82,3.23,3.23,0,0,1,1.27,1.16,3.61,3.61,0,0,1-.09,3.67,3.28,3.28,0,0,1-1.55,1.28,6.49,6.49,0,0,1-2.49.42,5,5,0,0,1-3.34-1A4.37,4.37,0,0,1,412.18,601.77Z" transform="translate(-148.53 -288.2)"/><path class="cls-16" d="M423.1,594h2.31v6.2a12.82,12.82,0,0,0,.09,1.91,1.86,1.86,0,0,0,.71,1.13,2.46,2.46,0,0,0,1.53.43,2.33,2.33,0,0,0,1.48-.4,1.59,1.59,0,0,0,.6-1,12.93,12.93,0,0,0,.1-1.95V594h2.31v6A15.45,15.45,0,0,1,432,603a3.23,3.23,0,0,1-.69,1.44,3.49,3.49,0,0,1-1.35.93,5.87,5.87,0,0,1-2.2.35,6.34,6.34,0,0,1-2.49-.38,3.56,3.56,0,0,1-1.34-1,3.16,3.16,0,0,1-.65-1.27,13.89,13.89,0,0,1-.23-2.91V594Z" transform="translate(-148.53 -288.2)"/><path class="cls-16" d="M435.32,585.83v-2.9h1.23a2.11,2.11,0,0,1,.67.08,0.67,0.67,0,0,1,.34.28,0.84,0.84,0,0,1,.13.46,0.77,0.77,0,0,1-.19.54,0.92,0.92,0,0,1-.57.27,1.42,1.42,0,0,1,.31.24,3.35,3.35,0,0,1,.33.47l0.35,0.57h-0.7l-0.42-.63a4,4,0,0,0-.31-0.43,0.45,0.45,0,0,0-.18-0.12,1,1,0,0,0-.29,0H435.9v1.21h-0.58Zm0.58-1.67h0.43a2.27,2.27,0,0,0,.53,0A0.32,0.32,0,0,0,437,584a0.38,0.38,0,0,0,.06-0.22,0.35,0.35,0,0,0-.08-0.24,0.36,0.36,0,0,0-.22-0.11H435.9v0.74Z" transform="translate(-148.53 -288.2)"/><circle class="cls-17" cx="287.97" cy="296.19" r="2.78"/></svg>