<svg id="Layer_19" data-name="Layer 19" xmlns="http://www.w3.org/2000/svg" xmlns:xlink="http://www.w3.org/1999/xlink" viewBox="0 0 497.46 139.54"><defs><style>.cls-1{fill:url(#radial-gradient);}.cls-2{fill:#191917;}.cls-3{fill:url(#radial-gradient-2);}.cls-4{fill:url(#linear-gradient);}.cls-5{fill:#f4c615;}.cls-18,.cls-6{fill:none;}.cls-7{fill:#feda00;opacity:0.4;}.cls-8{fill:url(#radial-gradient-3);}.cls-9{fill:#eeb92c;}.cls-10{fill:url(#radial-gradient-4);}.cls-11{fill:#efc820;}.cls-12{fill:url(#radial-gradient-5);}.cls-13{fill:url(#linear-gradient-2);}.cls-14{fill:url(#linear-gradient-3);}.cls-15{fill:url(#linear-gradient-4);}.cls-16{fill:#f2da0d;}.cls-17{fill:#fff;}.cls-18{stroke:#fff;stroke-miterlimit:10;}</style><radialGradient id="radial-gradient" cx="69.77" cy="69.77" fx="131.29194879521802" r="61.52" gradientUnits="userSpaceOnUse"><stop offset="0" stop-color="#5c4f29"/><stop offset="0.49" stop-color="#ffd763"/><stop offset="1" stop-color="#a89056"/></radialGradient><radialGradient id="radial-gradient-2" cx="69.77" cy="69.77" fx="8.304875339389255" r="61.52" gradientUnits="userSpaceOnUse"><stop offset="0.01" stop-color="#58595b"/><stop offset="0.49" stop-color="#4d4d4f"/><stop offset="1" stop-color="#2a2a2a"/></radialGradient><linearGradient id="linear-gradient" x1="142.79" y1="239.77" x2="142.79" y2="370.15" gradientUnits="userSpaceOnUse"><stop offset="0" stop-color="#eebf09"/><stop offset="0.19" stop-color="#c39e08"/><stop offset="0.72" stop-color="#ffcd05"/><stop offset="1" stop-color="#a1832f"/></linearGradient><radialGradient id="radial-gradient-3" cx="173.97" cy="304.74" r="17.23" gradientUnits="userSpaceOnUse"><stop offset="0.01" stop-color="#58595b"/><stop offset="0.49" stop-color="#4d4d4f"/><stop offset="1" stop-color="#333"/></radialGradient><radialGradient id="radial-gradient-4" cx="528.32" cy="432.46" r="17.23" gradientTransform="translate(759.19 74.05) rotate(118.4)" xlink:href="#radial-gradient-3"/><radialGradient id="radial-gradient-5" cx="433.66" cy="42" r="17.23" gradientTransform="translate(311.74 672.75) rotate(-120.53)" xlink:href="#radial-gradient-3"/><linearGradient id="linear-gradient-2" x1="166.04" y1="235.74" x2="166.04" y2="332.21" gradientUnits="userSpaceOnUse"><stop offset="0" stop-color="#b39205"/><stop offset="0.37" stop-color="#ffcd05"/><stop offset="1" stop-color="#a1832f"/></linearGradient><linearGradient id="linear-gradient-3" x1="114.91" y1="248.5" x2="114.91" y2="345.25" xlink:href="#linear-gradient-2"/><linearGradient id="linear-gradient-4" x1="149.99" y1="320.27" x2="149.99" y2="337.44" xlink:href="#linear-gradient-2"/></defs><title>objj-logo-vert-light</title><circle class="cls-1" cx="69.77" cy="69.77" r="61.52"/><path class="cls-2" d="M142.79,374.73A69.77,69.77,0,1,1,212.57,305,69.85,69.85,0,0,1,142.79,374.73Zm0-123A53.27,53.27,0,1,0,196.06,305,53.33,53.33,0,0,0,142.79,251.69Z" transform="translate(-73.02 -235.19)"/><circle class="cls-3" cx="69.77" cy="69.77" r="61.52"/><path class="cls-4" d="M142.79,370.15A65.19,65.19,0,1,1,208,305,65.26,65.26,0,0,1,142.79,370.15Zm0-123A57.85,57.85,0,1,0,200.65,305,57.92,57.92,0,0,0,142.79,247.11Z" transform="translate(-73.02 -235.19)"/><path class="cls-5" d="M142.79,364.74A59.78,59.78,0,1,1,202.58,305,59.85,59.85,0,0,1,142.79,364.74Zm0-117.74a58,58,0,1,0,58,58A58,58,0,0,0,142.79,247Z" transform="translate(-73.02 -235.19)"/><path class="cls-6" d="M145.09,251.65l5.61,13.18h0l24.56,57.66L189.88,330A53.33,53.33,0,0,0,145.09,251.65Z" transform="translate(-73.02 -235.19)"/><path class="cls-7" d="M194.18,333.62a58.83,58.83,0,0,0-51.39-87.53h-0.26l-4.21-9.65,2.75,9.69a58.82,58.82,0,0,0-50.26,86.42l-6.22,12.7L92.18,335a58.82,58.82,0,0,0,100.71.85h12.93ZM89.43,305a53.44,53.44,0,0,1,46.15-52.87l-37,64.63h0l-5,8.78A53.07,53.07,0,0,1,89.43,305Zm53.37,53.37a53.31,53.31,0,0,1-44.22-23.59l16.34-11.17,6.87,0.31,47.08,6.48-0.67,5.48h18.07A53.3,53.3,0,0,1,142.79,358.33Zm45.65-25.79-10.76-2L112.5,316.72,97.05,332.37c-0.45-.74-0.87-1.5-1.29-2.26l3.4-4.61L99,323.59l41.26-71.93c0.56,0,1.12,0,1.68,0L166,326.09l22.61,6.13Zm1.43-2.49-14.62-7.55-24.56-57.66h0l-5.61-13.18A53.33,53.33,0,0,1,189.88,330Z" transform="translate(-73.02 -235.19)"/><path class="cls-8" d="M170.63,321.12l16.1,4.38L162.89,284s-1.83,5.16-1.66,5.55S170.63,321.12,170.63,321.12Z" transform="translate(-73.02 -235.19)"/><path class="cls-9" d="M192.42,329.9l-24-6.53L168,321.9c-3.59-12.14-9.05-30.54-9.36-31.47-0.33-.78-0.52-1.21,1.67-7.38l2-5.64Zm-19.59-11,8.2,2.23-15.61-27.2C166.67,298.09,168.88,305.54,172.83,318.87Z" transform="translate(-73.02 -235.19)"/><path class="cls-10" d="M114.66,322.31l-11.51,12.07L151,333.18s-3.67-4.07-4.09-4.1S114.66,322.31,114.66,322.31Z" transform="translate(-73.02 -235.19)"/><path class="cls-11" d="M96.56,337.3l17.16-18,1.5,0.32c12.39,2.61,31.16,6.56,32.13,6.73s1.31,0.12,5.7,5l4,4.44Zm19-12-5.86,6.15,31.35-.79C136.8,329.79,129.19,328.19,115.59,325.32Z" transform="translate(-73.02 -235.19)"/><path class="cls-12" d="M143.44,272.43L139,256.34,115.38,298s5.38-1,5.63-1.39S143.44,272.43,143.44,272.43Z" transform="translate(-73.02 -235.19)"/><path class="cls-11" d="M110,301.81l29.91-52.61,6.56,24-1,1.12c-8.47,9.09-21.23,22.8-22.3,24-0.57.77-1.07,1.16-7.25,2.36Zm28.11-38.32-15.49,27.26c3-3.21,8.26-8.9,17.74-19.06Z" transform="translate(-73.02 -235.19)"/><path class="cls-6" d="M168.86,330.35l-47.08-6.48-6.87-.31L98.57,334.73a53.24,53.24,0,0,0,87.69,1.1H168.2Z" transform="translate(-73.02 -235.19)"/><path class="cls-6" d="M142,251.61c-0.56,0-1.12,0-1.68,0L99,323.59l0.13,1.92-3.4,4.61c0.41,0.76.84,1.52,1.29,2.26l15.45-15.65,65.18,13.77,10.76,2,0.21-.32L166,326.09Z" transform="translate(-73.02 -235.19)"/><path class="cls-13" d="M163.63,290.76L182,322.2l-8-2.74-10.37-28.7m-25.72-55,31.81,88.06,24.45,8.4-56.26-96.47h0Z" transform="translate(-73.02 -235.19)"/><path class="cls-14" d="M137.74,264.07l1.58,8.28L119.57,295.6l18.18-31.53m2.62-15.57L84.6,345.25l60.62-71.36-4.86-25.4h0Z" transform="translate(-73.02 -235.19)"/><path class="cls-15" d="M115.18,326.13l30.09,5.07-36.39.52,6.3-5.6m-1.68-5.86L94.16,337.44l111.66-1.61-92.33-15.56h0Z" transform="translate(-73.02 -235.19)"/><path class="cls-16" d="M374,323.85h5.47a15.84,15.84,0,0,1,2.42.14,3.56,3.56,0,0,1,1.43.56,3.51,3.51,0,0,1,1,1.14,3.09,3.09,0,0,1,.42,1.6,3.24,3.24,0,0,1-1.92,3,3.6,3.6,0,0,1,1.92,1.24,3.29,3.29,0,0,1,.67,2.06,4.07,4.07,0,0,1-.43,1.81,3.65,3.65,0,0,1-1.18,1.41,3.91,3.91,0,0,1-1.85.65q-0.69.08-3.33,0.09H374V323.85Zm2.76,2.28v3.16h1.81q1.61,0,2,0a1.83,1.83,0,0,0,1.11-.49,1.44,1.44,0,0,0,.41-1.07,1.5,1.5,0,0,0-.35-1,1.58,1.58,0,0,0-1-.48q-0.41,0-2.36,0h-1.59Zm0,5.44v3.66h2.56a12.49,12.49,0,0,0,1.89-.08,1.71,1.71,0,0,0,1-.55,1.68,1.68,0,0,0,.39-1.16,1.78,1.78,0,0,0-.3-1,1.69,1.69,0,0,0-.86-0.62,9.38,9.38,0,0,0-2.45-.2h-2.23Z" transform="translate(-73.02 -235.19)"/><path class="cls-16" d="M387.4,337.53V323.85h5.81a9.94,9.94,0,0,1,3.19.37,3.14,3.14,0,0,1,1.59,1.31,3.94,3.94,0,0,1,.6,2.15,3.65,3.65,0,0,1-.9,2.54,4.35,4.35,0,0,1-2.7,1.26,6.47,6.47,0,0,1,1.48,1.15,15.61,15.61,0,0,1,1.57,2.22l1.67,2.67h-3.3l-2-3a19.25,19.25,0,0,0-1.45-2,2.12,2.12,0,0,0-.83-0.57,4.55,4.55,0,0,0-1.39-.15h-0.56v5.71H387.4Zm2.76-7.89h2a10.55,10.55,0,0,0,2.48-.17,1.49,1.49,0,0,0,.77-0.58,1.78,1.78,0,0,0,.28-1,1.64,1.64,0,0,0-.37-1.11,1.69,1.69,0,0,0-1-.54q-0.34,0-2,0h-2.15v3.47Z" transform="translate(-73.02 -235.19)"/><path class="cls-16" d="M413.14,337.53h-3l-1.19-3.11h-5.47l-1.13,3.11h-2.93l5.33-13.67h2.92Zm-5.08-5.41L406.17,327l-1.85,5.07h3.73Z" transform="translate(-73.02 -235.19)"/><path class="cls-16" d="M413,337.53V335l7.18-8.87h-6.37v-2.31h10V326l-7.49,9.22h7.78v2.3H413Z" transform="translate(-73.02 -235.19)"/><path class="cls-16" d="M425.42,337.53V323.85h2.76v13.67h-2.76Z" transform="translate(-73.02 -235.19)"/><path class="cls-16" d="M430.5,337.53V324h2.76v11.26h6.86v2.3H430.5Z" transform="translate(-73.02 -235.19)"/><path class="cls-16" d="M441.63,337.53V323.85h2.76v13.67h-2.76Z" transform="translate(-73.02 -235.19)"/><path class="cls-16" d="M459,337.53h-3l-1.19-3.11h-5.47l-1.13,3.11h-2.93l5.33-13.67h2.92Zm-5.08-5.41L452,327l-1.85,5.07h3.73Z" transform="translate(-73.02 -235.19)"/><path class="cls-16" d="M460.08,337.53V323.85h2.69l5.6,9.13v-9.13h2.56v13.67h-2.77l-5.51-8.92v8.92h-2.56Z" transform="translate(-73.02 -235.19)"/><path class="cls-16" d="M483.32,323.85h2.75v8.66a8.86,8.86,0,0,1-.3,2.61,3.7,3.7,0,0,1-1.45,1.92,4.83,4.83,0,0,1-2.78.72,4.12,4.12,0,0,1-3.12-1.13,4.64,4.64,0,0,1-1.1-3.33l2.6-.3a3.62,3.62,0,0,0,.35,1.66,1.49,1.49,0,0,0,1.36.74,1.51,1.51,0,0,0,1.31-.53,4.16,4.16,0,0,0,.38-2.19v-8.83Z" transform="translate(-73.02 -235.19)"/><path class="cls-16" d="M488.55,337.53V323.85h2.76v13.67h-2.76Z" transform="translate(-73.02 -235.19)"/><path class="cls-16" d="M493.54,323.85h2.76v7.41a15.31,15.31,0,0,0,.1,2.29,2.21,2.21,0,0,0,.84,1.35,2.94,2.94,0,0,0,1.82.51,2.78,2.78,0,0,0,1.77-.48,1.9,1.9,0,0,0,.72-1.18,15.44,15.44,0,0,0,.12-2.32v-7.56h2.76V331a18.45,18.45,0,0,1-.22,3.48,3.85,3.85,0,0,1-.83,1.72,4.17,4.17,0,0,1-1.61,1.11,7,7,0,0,1-2.63.42,7.56,7.56,0,0,1-3-.45,4.25,4.25,0,0,1-1.6-1.18,3.76,3.76,0,0,1-.77-1.52,16.58,16.58,0,0,1-.27-3.47v-7.29Z" transform="translate(-73.02 -235.19)"/><path class="cls-16" d="M516.83,323.85h2.75v8.66a8.82,8.82,0,0,1-.3,2.61,3.69,3.69,0,0,1-1.45,1.92,4.83,4.83,0,0,1-2.78.72,4.12,4.12,0,0,1-3.12-1.13,4.64,4.64,0,0,1-1.1-3.33l2.6-.3a3.64,3.64,0,0,0,.35,1.66,1.49,1.49,0,0,0,1.36.74,1.51,1.51,0,0,0,1.31-.53,4.15,4.15,0,0,0,.38-2.19v-8.83Z" transform="translate(-73.02 -235.19)"/><path class="cls-16" d="M522.05,337.53V323.85h2.76v13.67h-2.76Z" transform="translate(-73.02 -235.19)"/><path class="cls-16" d="M530.14,337.53V326.17h-4.06v-2.31h10.87v2.31h-4v11.36h-2.76Z" transform="translate(-73.02 -235.19)"/><path class="cls-16" d="M537.65,333.08l2.69-.26a3.28,3.28,0,0,0,1,2,3,3,0,0,0,2,.63,3.07,3.07,0,0,0,2-.56,1.68,1.68,0,0,0,.68-1.32,1.24,1.24,0,0,0-.28-0.83,2.27,2.27,0,0,0-1-.59q-0.48-.17-2.21-0.6a7.5,7.5,0,0,1-3.12-1.35,3.56,3.56,0,0,1-1.26-2.75,3.51,3.51,0,0,1,.59-2,3.71,3.71,0,0,1,1.71-1.39,6.84,6.84,0,0,1,2.69-.48,5.77,5.77,0,0,1,3.88,1.13,4,4,0,0,1,1.37,3l-2.76.12a2.34,2.34,0,0,0-.76-1.52,2.78,2.78,0,0,0-1.75-.46,3.15,3.15,0,0,0-1.88.49,1,1,0,0,0-.44.85,1,1,0,0,0,.41.83,7.25,7.25,0,0,0,2.54.91,13.37,13.37,0,0,1,3,1,3.85,3.85,0,0,1,1.51,1.39,4.3,4.3,0,0,1-.11,4.38,3.91,3.91,0,0,1-1.85,1.52,7.75,7.75,0,0,1-3,.5,5.93,5.93,0,0,1-4-1.2A5.21,5.21,0,0,1,537.65,333.08Z" transform="translate(-73.02 -235.19)"/><path class="cls-16" d="M550.69,323.85h2.76v7.41a15.31,15.31,0,0,0,.1,2.29,2.22,2.22,0,0,0,.84,1.35,2.94,2.94,0,0,0,1.82.51,2.78,2.78,0,0,0,1.77-.48,1.9,1.9,0,0,0,.72-1.18,15.44,15.44,0,0,0,.12-2.32v-7.56h2.76V331a18.45,18.45,0,0,1-.22,3.48,3.85,3.85,0,0,1-.83,1.72,4.17,4.17,0,0,1-1.61,1.11,7,7,0,0,1-2.63.42,7.57,7.57,0,0,1-3-.45,4.25,4.25,0,0,1-1.6-1.18,3.77,3.77,0,0,1-.77-1.52,16.58,16.58,0,0,1-.27-3.47v-7.29Z" transform="translate(-73.02 -235.19)"/><path class="cls-17" d="M222.89,293.4q0-11.28,6.28-17.57t17.5-6.29q11.5,0,17.72,6.17t6.22,17.3q0,8.08-2.72,13.25a19.39,19.39,0,0,1-7.86,8,25.93,25.93,0,0,1-12.8,2.88,29.48,29.48,0,0,1-12.9-2.48,19.42,19.42,0,0,1-8.28-7.86Q222.89,301.48,222.89,293.4Zm14.24,0.06q0,7,2.59,10a9.81,9.81,0,0,0,14.16.06q2.51-3,2.51-10.72,0-6.51-2.62-9.51a9,9,0,0,0-7.12-3,8.65,8.65,0,0,0-6.91,3Q237.12,286.43,237.12,293.47Z" transform="translate(-73.02 -235.19)"/><path class="cls-17" d="M304.69,270.34h14.2v27.45a23.1,23.1,0,0,1-1.27,7.71,16.66,16.66,0,0,1-4,6.34,15.91,15.91,0,0,1-5.7,3.81,28.7,28.7,0,0,1-10,1.54,62.77,62.77,0,0,1-7.34-.47,19.22,19.22,0,0,1-6.65-1.87,16.66,16.66,0,0,1-4.89-4,14.58,14.58,0,0,1-3-5.31,27.5,27.5,0,0,1-1.32-7.79V270.34h14.2v28.1a8,8,0,0,0,2.09,5.89,9,9,0,0,0,11.56,0,8,8,0,0,0,2.09-5.92v-28.1Z" transform="translate(-73.02 -235.19)"/><path class="cls-17" d="M323.89,270.34h43.27v11.38H352.64v34.69H338.4V281.71H323.89V270.34Z" transform="translate(-73.02 -235.19)"/><path class="cls-17" d="M372.41,270.34h14.24v34.72h22.22v11.34H372.41V270.34Z" transform="translate(-73.02 -235.19)"/><path class="cls-17" d="M413.51,270.34h14.27v46.07H413.51V270.34Z" transform="translate(-73.02 -235.19)"/><path class="cls-17" d="M433.18,270.34h38.15v9.84H447.45v7.32H469.6v9.4H447.45V306H472v10.43H433.18V270.34Z" transform="translate(-73.02 -235.19)"/><path class="cls-17" d="M476.3,316.41V270.34H500a34.47,34.47,0,0,1,10.09,1.13,10.75,10.75,0,0,1,5.63,4.2,13,13,0,0,1-4,18.59,17.22,17.22,0,0,1-5,1.82,14.21,14.21,0,0,1,3.71,1.7,14.41,14.41,0,0,1,2.28,2.42,18.12,18.12,0,0,1,2,2.86l6.89,13.35H505.53l-7.61-14.08a10.72,10.72,0,0,0-2.58-3.55,6,6,0,0,0-3.49-1.07h-1.26v18.7H476.3Zm14.3-27.4h6a21.37,21.37,0,0,0,3.77-.63,3.76,3.76,0,0,0,2.31-1.45,4.66,4.66,0,0,0-.52-6.1q-1.41-1.19-5.31-1.19h-6.25V289Z" transform="translate(-73.02 -235.19)"/><path class="cls-17" d="M520.1,301.16l13.54-.85a10.32,10.32,0,0,0,1.79,5,7.53,7.53,0,0,0,6.29,2.8,7,7,0,0,0,4.7-1.43,4.28,4.28,0,0,0,1.65-3.32,4.23,4.23,0,0,0-1.57-3.2q-1.57-1.41-7.29-2.67-9.36-2.11-13.36-5.59a11.25,11.25,0,0,1-4-8.89,12.08,12.08,0,0,1,2.06-6.71,13.64,13.64,0,0,1,6.19-5q4.13-1.81,11.33-1.81,8.83,0,13.47,3.28t5.51,10.45l-13.42.79a6.27,6.27,0,0,0-7-5.94,5.71,5.71,0,0,0-3.74,1.05,3.23,3.23,0,0,0-1.26,2.56,2.56,2.56,0,0,0,1,2q1,0.91,4.78,1.7,9.33,2,13.37,4.07a14.05,14.05,0,0,1,5.88,5.11,12.94,12.94,0,0,1,1.84,6.82,14.61,14.61,0,0,1-2.45,8.17,15.34,15.34,0,0,1-6.85,5.67,27.68,27.68,0,0,1-11.09,1.93q-11.75,0-16.28-4.52A17.85,17.85,0,0,1,520.1,301.16Z" transform="translate(-73.02 -235.19)"/><path class="cls-17" d="M565.27,314v-3.46h1.47a2.52,2.52,0,0,1,.81.09,0.8,0.8,0,0,1,.4.33,1,1,0,0,1,.15.55,0.92,0.92,0,0,1-.23.64,1.1,1.1,0,0,1-.68.32,1.69,1.69,0,0,1,.37.29,4,4,0,0,1,.4.56l0.42,0.68h-0.84l-0.5-.75a4.79,4.79,0,0,0-.37-0.51,0.54,0.54,0,0,0-.21-0.14,1.16,1.16,0,0,0-.35,0H566V314h-0.7Zm0.7-2h0.52a2.71,2.71,0,0,0,.63,0,0.38,0.38,0,0,0,.2-0.15,0.45,0.45,0,0,0,.07-0.26,0.42,0.42,0,0,0-.09-0.28,0.43,0.43,0,0,0-.26-0.14H566V312Z" transform="translate(-73.02 -235.19)"/><circle class="cls-18" cx="493.65" cy="77.13" r="3.31"/></svg>