<svg id="Layer_20" data-name="Layer 20" xmlns="http://www.w3.org/2000/svg" xmlns:xlink="http://www.w3.org/1999/xlink" viewBox="0 0 256.42 256.42"><defs><style>.cls-1{fill:url(#radial-gradient);}.cls-2{fill:#191917;}.cls-3{fill:url(#radial-gradient-2);}.cls-4{fill:url(#linear-gradient);}.cls-5{fill:#f4c615;}.cls-6{fill:none;}.cls-7{fill:#feda00;opacity:0.4;}.cls-8{fill:url(#radial-gradient-3);}.cls-9{fill:#eeb92c;}.cls-10{fill:url(#radial-gradient-4);}.cls-11{fill:#efc820;}.cls-12{fill:url(#radial-gradient-5);}.cls-13{fill:url(#linear-gradient-2);}.cls-14{fill:url(#linear-gradient-3);}.cls-15{fill:url(#linear-gradient-4);}</style><radialGradient id="radial-gradient" cx="128.21" cy="128.21" fx="241.256194716138" r="113.05" gradientUnits="userSpaceOnUse"><stop offset="0" stop-color="#5c4f29"/><stop offset="0.49" stop-color="#ffd763"/><stop offset="1" stop-color="#a89056"/></radialGradient><radialGradient id="radial-gradient-2" cx="128.21" cy="128.21" fx="15.260666326905579" r="113.05" gradientUnits="userSpaceOnUse"><stop offset="0.01" stop-color="#58595b"/><stop offset="0.49" stop-color="#4d4d4f"/><stop offset="1" stop-color="#2a2a2a"/></radialGradient><linearGradient id="linear-gradient" x1="290.19" y1="296.62" x2="290.19" y2="536.19" gradientUnits="userSpaceOnUse"><stop offset="0" stop-color="#eebf09"/><stop offset="0.19" stop-color="#c39e08"/><stop offset="0.72" stop-color="#ffcd05"/><stop offset="1" stop-color="#a1832f"/></linearGradient><radialGradient id="radial-gradient-3" cx="347.47" cy="416" r="31.66" gradientUnits="userSpaceOnUse"><stop offset="0.01" stop-color="#58595b"/><stop offset="0.49" stop-color="#4d4d4f"/><stop offset="1" stop-color="#333"/></radialGradient><radialGradient id="radial-gradient-4" cx="583.03" cy="249.89" r="31.66" gradientTransform="translate(759.19 74.05) rotate(118.4)" xlink:href="#radial-gradient-3"/><radialGradient id="radial-gradient-5" cx="288.78" cy="112.93" r="31.66" gradientTransform="translate(311.74 672.75) rotate(-120.53)" xlink:href="#radial-gradient-3"/><linearGradient id="linear-gradient-2" x1="332.91" y1="289.22" x2="332.91" y2="466.48" gradientUnits="userSpaceOnUse"><stop offset="0" stop-color="#b39205"/><stop offset="0.37" stop-color="#ffcd05"/><stop offset="1" stop-color="#a1832f"/></linearGradient><linearGradient id="linear-gradient-3" x1="238.96" y1="312.66" x2="238.96" y2="490.45" xlink:href="#linear-gradient-2"/><linearGradient id="linear-gradient-4" x1="303.41" y1="444.53" x2="303.41" y2="476.09" xlink:href="#linear-gradient-2"/></defs><title>objj-icon-new</title><circle class="cls-1" cx="128.21" cy="128.21" r="113.05"/><path class="cls-2" d="M290.19,544.61A128.21,128.21,0,1,1,418.4,416.4,128.35,128.35,0,0,1,290.19,544.61Zm0-226.09a97.89,97.89,0,1,0,97.89,97.89A98,98,0,0,0,290.19,318.52Z" transform="translate(-161.98 -288.2)"/><circle class="cls-3" cx="128.21" cy="128.21" r="113.05"/><path class="cls-4" d="M290.19,536.19A119.79,119.79,0,1,1,410,416.4,119.92,119.92,0,0,1,290.19,536.19Zm0-226.09A106.31,106.31,0,1,0,396.5,416.4,106.43,106.43,0,0,0,290.19,310.09Z" transform="translate(-161.98 -288.2)"/><path class="cls-5" d="M290.19,526.26A109.86,109.86,0,1,1,400,416.4,110,110,0,0,1,290.19,526.26Zm0-216.35A106.49,106.49,0,1,0,396.67,416.4,106.61,106.61,0,0,0,290.19,309.92Z" transform="translate(-161.98 -288.2)"/><path class="cls-6" d="M294.41,318.45l10.32,24.23h0l45.12,105.95,26.86,13.88A98,98,0,0,0,294.41,318.45Z" transform="translate(-161.98 -288.2)"/><path class="cls-7" d="M384.62,469.08a108.1,108.1,0,0,0-94.43-160.84h-0.48L282,290.51l5.06,17.8a108.09,108.09,0,0,0-92.36,158.81l-11.42,23.33,13.93-18.89a108.08,108.08,0,0,0,185.05,1.57H406ZM192.12,416.4a98.2,98.2,0,0,1,84.8-97.14L208.93,438h0l-9.24,16.14A97.52,97.52,0,0,1,192.12,416.4Zm98.06,98.06a98,98,0,0,1-81.26-43.35l30-20.52,12.63,0.56,86.51,11.91-1.23,10.07h33.2A97.94,97.94,0,0,1,290.19,514.47Zm83.89-47.39-19.78-3.75L234.52,438l-28.39,28.76c-0.82-1.36-1.6-2.75-2.36-4.15l6.25-8.48-0.24-3.52L285.6,318.46c1,0,2.06-.06,3.09-0.08l44.22,136.85,41.55,11.26C374.34,466.69,374.21,466.88,374.08,467.07Zm2.63-4.57-26.86-13.88L304.73,342.68h0l-10.32-24.23A98,98,0,0,1,376.71,462.51Z" transform="translate(-161.98 -288.2)"/><path class="cls-8" d="M341.33,446.1l29.58,8.05-43.8-76.31s-3.36,9.49-3.06,10.2S341.33,446.1,341.33,446.1Z" transform="translate(-161.98 -288.2)"/><path class="cls-9" d="M381.38,462.24l-44.1-12-0.8-2.7c-6.6-22.31-16.64-56.11-17.2-57.82-0.62-1.42-1-2.21,3.07-13.56L326,365.8Zm-36-20.28,15.06,4.1-28.68-50C334.05,403.78,338.12,417.47,345.38,442Z" transform="translate(-161.98 -288.2)"/><path class="cls-10" d="M238.49,448.29l-21.15,22.19,88-2.23s-6.75-7.47-7.52-7.54S238.49,448.29,238.49,448.29Z" transform="translate(-161.98 -288.2)"/><path class="cls-11" d="M205.24,475.84l31.53-33.07,2.76,0.58c22.76,4.8,57.26,12.06,59,12.37,1.55,0.13,2.4.21,10.47,9.15l7.37,8.16Zm35-22-10.77,11.3,57.6-1.46C279.17,462,265.19,459.09,240.2,453.82Z" transform="translate(-161.98 -288.2)"/><path class="cls-12" d="M291.38,356.63l-8.09-29.57-43.48,76.49s9.88-1.92,10.34-2.55S291.38,356.63,291.38,356.63Z" transform="translate(-161.98 -288.2)"/><path class="cls-11" d="M230,410.61l55-96.68L297,358l-1.92,2.06c-15.57,16.71-39,41.89-41,44.09-1,1.41-2,2.13-13.32,4.34Zm51.66-70.42-28.47,50.09c5.46-5.89,15.18-16.35,32.59-35Z" transform="translate(-161.98 -288.2)"/><path class="cls-6" d="M338.09,463.06l-86.51-11.91L239,450.59l-30,20.52a97.84,97.84,0,0,0,161.14,2h-33.2Z" transform="translate(-161.98 -288.2)"/><path class="cls-6" d="M288.69,318.38c-1,0-2.06,0-3.09.08L209.79,450.63l0.24,3.52-6.25,8.48c0.76,1.4,1.54,2.79,2.36,4.15L234.52,438,354.3,463.32l19.78,3.75c0.13-.19.26-0.39,0.38-0.59l-41.55-11.26Z" transform="translate(-161.98 -288.2)"/><path class="cls-13" d="M328.48,390.31l33.69,57.77-14.65-5-19-52.74M281.22,289.22L339.66,451l44.94,15.44L281.22,289.22h0Z" transform="translate(-161.98 -288.2)"/><path class="cls-14" d="M280.91,341.26l2.91,15.21-36.31,42.74,33.4-57.95m4.82-28.6L183.25,490.45l111.4-131.12-8.93-46.67h0Z" transform="translate(-161.98 -288.2)"/><path class="cls-15" d="M239.44,455.31l55.3,9.32-66.87,1,11.58-10.28m-3.09-10.77-35.52,31.55,205.18-3-169.66-28.6h0Z" transform="translate(-161.98 -288.2)"/></svg>