<svg id="Layer_18" data-name="Layer 18" xmlns="http://www.w3.org/2000/svg" xmlns:xlink="http://www.w3.org/1999/xlink" viewBox="0 0 440.3 139.54"><defs><style>.cls-1{fill:url(#radial-gradient);}.cls-2{fill:#191917;}.cls-3{fill:url(#radial-gradient-2);}.cls-4{fill:url(#linear-gradient);}.cls-5{fill:#f4c615;}.cls-17,.cls-6{fill:none;}.cls-7{fill:#feda00;opacity:0.4;}.cls-8{fill:url(#radial-gradient-3);}.cls-9{fill:#eeb92c;}.cls-10{fill:url(#radial-gradient-4);}.cls-11{fill:#efc820;}.cls-12{fill:url(#radial-gradient-5);}.cls-13{fill:url(#linear-gradient-2);}.cls-14{fill:url(#linear-gradient-3);}.cls-15{fill:url(#linear-gradient-4);}.cls-16{fill:#231f20;}.cls-17{stroke:#231f20;stroke-miterlimit:10;}</style><radialGradient id="radial-gradient" cx="69.77" cy="69.77" fx="131.29194879521802" r="61.52" gradientUnits="userSpaceOnUse"><stop offset="0" stop-color="#5c4f29"/><stop offset="0.49" stop-color="#ffd763"/><stop offset="1" stop-color="#a89056"/></radialGradient><radialGradient id="radial-gradient-2" cx="69.77" cy="69.77" fx="8.304875339389255" r="61.52" gradientUnits="userSpaceOnUse"><stop offset="0.01" stop-color="#58595b"/><stop offset="0.49" stop-color="#4d4d4f"/><stop offset="1" stop-color="#2a2a2a"/></radialGradient><linearGradient id="linear-gradient" x1="142.79" y1="239.77" x2="142.79" y2="370.15" gradientUnits="userSpaceOnUse"><stop offset="0" stop-color="#eebf09"/><stop offset="0.19" stop-color="#c39e08"/><stop offset="0.72" stop-color="#ffcd05"/><stop offset="1" stop-color="#a1832f"/></linearGradient><radialGradient id="radial-gradient-3" cx="173.97" cy="304.74" r="17.23" gradientUnits="userSpaceOnUse"><stop offset="0.01" stop-color="#58595b"/><stop offset="0.49" stop-color="#4d4d4f"/><stop offset="1" stop-color="#333"/></radialGradient><radialGradient id="radial-gradient-4" cx="528.32" cy="432.46" r="17.23" gradientTransform="translate(759.19 74.05) rotate(118.4)" xlink:href="#radial-gradient-3"/><radialGradient id="radial-gradient-5" cx="433.66" cy="42" r="17.23" gradientTransform="translate(311.74 672.75) rotate(-120.53)" xlink:href="#radial-gradient-3"/><linearGradient id="linear-gradient-2" x1="166.04" y1="235.74" x2="166.04" y2="332.21" gradientUnits="userSpaceOnUse"><stop offset="0" stop-color="#b39205"/><stop offset="0.37" stop-color="#ffcd05"/><stop offset="1" stop-color="#a1832f"/></linearGradient><linearGradient id="linear-gradient-3" x1="114.91" y1="248.5" x2="114.91" y2="345.25" xlink:href="#linear-gradient-2"/><linearGradient id="linear-gradient-4" x1="149.99" y1="320.27" x2="149.99" y2="337.44" xlink:href="#linear-gradient-2"/></defs><title>objj-logo-vert-dark</title><circle class="cls-1" cx="69.77" cy="69.77" r="61.52"/><path class="cls-2" d="M142.79,374.73A69.77,69.77,0,1,1,212.57,305,69.85,69.85,0,0,1,142.79,374.73Zm0-123A53.27,53.27,0,1,0,196.06,305,53.33,53.33,0,0,0,142.79,251.69Z" transform="translate(-73.02 -235.19)"/><circle class="cls-3" cx="69.77" cy="69.77" r="61.52"/><path class="cls-4" d="M142.79,370.15A65.19,65.19,0,1,1,208,305,65.26,65.26,0,0,1,142.79,370.15Zm0-123A57.85,57.85,0,1,0,200.65,305,57.92,57.92,0,0,0,142.79,247.11Z" transform="translate(-73.02 -235.19)"/><path class="cls-5" d="M142.79,364.74A59.78,59.78,0,1,1,202.58,305,59.85,59.85,0,0,1,142.79,364.74Zm0-117.74a58,58,0,1,0,58,58A58,58,0,0,0,142.79,247Z" transform="translate(-73.02 -235.19)"/><path class="cls-6" d="M145.09,251.65l5.61,13.18h0l24.56,57.66L189.88,330A53.33,53.33,0,0,0,145.09,251.65Z" transform="translate(-73.02 -235.19)"/><path class="cls-7" d="M194.18,333.62a58.83,58.83,0,0,0-51.39-87.53h-0.26l-4.21-9.65,2.75,9.69a58.82,58.82,0,0,0-50.26,86.42l-6.22,12.7L92.18,335a58.82,58.82,0,0,0,100.71.85h12.93ZM89.43,305a53.44,53.44,0,0,1,46.15-52.87l-37,64.63h0l-5,8.78A53.07,53.07,0,0,1,89.43,305Zm53.37,53.37a53.31,53.31,0,0,1-44.22-23.59l16.34-11.17,6.87,0.31,47.08,6.48-0.67,5.48h18.07A53.3,53.3,0,0,1,142.79,358.33Zm45.65-25.79-10.76-2L112.5,316.72,97.05,332.37c-0.45-.74-0.87-1.5-1.29-2.26l3.4-4.61L99,323.59l41.26-71.93c0.56,0,1.12,0,1.68,0L166,326.09l22.61,6.13Zm1.43-2.49-14.62-7.55-24.56-57.66h0l-5.61-13.18A53.33,53.33,0,0,1,189.88,330Z" transform="translate(-73.02 -235.19)"/><path class="cls-8" d="M170.63,321.12l16.1,4.38L162.89,284s-1.83,5.16-1.66,5.55S170.63,321.12,170.63,321.12Z" transform="translate(-73.02 -235.19)"/><path class="cls-9" d="M192.42,329.9l-24-6.53L168,321.9c-3.59-12.14-9.05-30.54-9.36-31.47-0.33-.78-0.52-1.21,1.67-7.38l2-5.64Zm-19.59-11,8.2,2.23-15.61-27.2C166.67,298.09,168.88,305.54,172.83,318.87Z" transform="translate(-73.02 -235.19)"/><path class="cls-10" d="M114.66,322.31l-11.51,12.07L151,333.18s-3.67-4.07-4.09-4.1S114.66,322.31,114.66,322.31Z" transform="translate(-73.02 -235.19)"/><path class="cls-11" d="M96.56,337.3l17.16-18,1.5,0.32c12.39,2.61,31.16,6.56,32.13,6.73s1.31,0.12,5.7,5l4,4.44Zm19-12-5.86,6.15,31.35-.79C136.8,329.79,129.19,328.19,115.59,325.32Z" transform="translate(-73.02 -235.19)"/><path class="cls-12" d="M143.44,272.43L139,256.34,115.38,298s5.38-1,5.63-1.39S143.44,272.43,143.44,272.43Z" transform="translate(-73.02 -235.19)"/><path class="cls-11" d="M110,301.81l29.91-52.61,6.56,24-1,1.12c-8.47,9.09-21.23,22.8-22.3,24-0.57.77-1.07,1.16-7.25,2.36Zm28.11-38.32-15.49,27.26c3-3.21,8.26-8.9,17.74-19.06Z" transform="translate(-73.02 -235.19)"/><path class="cls-6" d="M168.86,330.35l-47.08-6.48-6.87-.31L98.57,334.73a53.24,53.24,0,0,0,87.69,1.1H168.2Z" transform="translate(-73.02 -235.19)"/><path class="cls-6" d="M142,251.61c-0.56,0-1.12,0-1.68,0L99,323.59l0.13,1.92-3.4,4.61c0.41,0.76.84,1.52,1.29,2.26l15.45-15.65,65.18,13.77,10.76,2,0.21-.32L166,326.09Z" transform="translate(-73.02 -235.19)"/><path class="cls-13" d="M163.63,290.76L182,322.2l-8-2.74-10.37-28.7m-25.72-55,31.81,88.06,24.45,8.4-56.26-96.47h0Z" transform="translate(-73.02 -235.19)"/><path class="cls-14" d="M137.74,264.07l1.58,8.28L119.57,295.6l18.18-31.53m2.62-15.57L84.6,345.25l60.62-71.36-4.86-25.4h0Z" transform="translate(-73.02 -235.19)"/><path class="cls-15" d="M115.18,326.13l30.09,5.07-36.39.52,6.3-5.6m-1.68-5.86L94.16,337.44l111.66-1.61-92.33-15.56h0Z" transform="translate(-73.02 -235.19)"/><path d="M222.08,301.44q0-9.45,5.26-14.71T242,281.46q9.63,0,14.85,5.17t5.21,14.49a23.76,23.76,0,0,1-2.28,11.09,16.24,16.24,0,0,1-6.58,6.74,21.72,21.72,0,0,1-10.73,2.41,24.69,24.69,0,0,1-10.81-2.08,16.27,16.27,0,0,1-6.94-6.58A21.85,21.85,0,0,1,222.08,301.44ZM234,301.49q0,5.84,2.17,8.4a8.22,8.22,0,0,0,11.86.05q2.1-2.5,2.11-9,0-5.45-2.2-8a7.52,7.52,0,0,0-6-2.51,7.24,7.24,0,0,0-5.79,2.55Q234,295.59,234,301.49Z" transform="translate(-73.02 -235.19)"/><path d="M290.6,282.12h11.9v23a19.35,19.35,0,0,1-1.07,6.46,14,14,0,0,1-3.34,5.31,13.33,13.33,0,0,1-4.78,3.2,24,24,0,0,1-8.34,1.29,52.58,52.58,0,0,1-6.15-.39,16.1,16.1,0,0,1-5.57-1.57,14,14,0,0,1-4.09-3.33,12.21,12.21,0,0,1-2.54-4.45,23,23,0,0,1-1.11-6.52v-23h11.9v23.54a6.72,6.72,0,0,0,1.75,4.93,7.54,7.54,0,0,0,9.69,0,6.7,6.7,0,0,0,1.75-5V282.12Z" transform="translate(-73.02 -235.19)"/><path d="M306.68,282.12h36.25v9.53H330.76V320.7H318.84V291.65H306.68v-9.53Z" transform="translate(-73.02 -235.19)"/><path d="M347.32,282.12h11.92V311.2h18.61v9.5H347.32V282.12Z" transform="translate(-73.02 -235.19)"/><path d="M381.75,282.12h12V320.7h-12V282.12Z" transform="translate(-73.02 -235.19)"/><path d="M398.23,282.12h32v8.24h-20v6.13h18.56v7.87H410.18V312h20.58v8.74H398.23V282.12Z" transform="translate(-73.02 -235.19)"/><path d="M434.34,320.7V282.12h19.87a28.87,28.87,0,0,1,8.45.95,9,9,0,0,1,4.71,3.51A10.9,10.9,0,0,1,464,302.15a14.43,14.43,0,0,1-4.19,1.53,11.9,11.9,0,0,1,3.1,1.42,12.07,12.07,0,0,1,1.91,2,15.18,15.18,0,0,1,1.67,2.4l5.77,11.18H458.83l-6.37-11.79a9,9,0,0,0-2.16-3,5,5,0,0,0-2.92-.89h-1.05V320.7h-12Zm12-23h5a17.9,17.9,0,0,0,3.16-.53,3.15,3.15,0,0,0,1.93-1.21,3.91,3.91,0,0,0-.43-5.11q-1.19-1-4.45-1h-5.24v7.84Z" transform="translate(-73.02 -235.19)"/><path d="M471,307.94l11.34-.71a8.64,8.64,0,0,0,1.5,4.21,6.3,6.3,0,0,0,5.26,2.34,5.82,5.82,0,0,0,3.93-1.2,3.59,3.59,0,0,0,1.38-2.78,3.54,3.54,0,0,0-1.32-2.68q-1.32-1.19-6.11-2.24-7.84-1.76-11.19-4.69a9.42,9.42,0,0,1-3.37-7.45,10.12,10.12,0,0,1,1.72-5.62A11.42,11.42,0,0,1,479.4,283a24.21,24.21,0,0,1,9.49-1.51q7.4,0,11.28,2.75t4.62,8.75l-11.24.66a5.25,5.25,0,0,0-5.84-5,4.78,4.78,0,0,0-3.13.88,2.7,2.7,0,0,0-1.05,2.15,2.15,2.15,0,0,0,.87,1.66,9.75,9.75,0,0,0,4,1.42q7.82,1.68,11.2,3.41a11.77,11.77,0,0,1,4.92,4.28,10.84,10.84,0,0,1,1.54,5.71A12.24,12.24,0,0,1,504,315a12.85,12.85,0,0,1-5.74,4.75,23.19,23.19,0,0,1-9.29,1.62q-9.85,0-13.63-3.79A15,15,0,0,1,471,307.94Z" transform="translate(-73.02 -235.19)"/><path class="cls-16" d="M348.65,326.94h4.58a13.27,13.27,0,0,1,2,.11,3,3,0,0,1,1.2.47,2.94,2.94,0,0,1,.88,1,2.59,2.59,0,0,1,.35,1.34,2.72,2.72,0,0,1-1.61,2.48,3,3,0,0,1,1.61,1,2.76,2.76,0,0,1,.56,1.73,3.41,3.41,0,0,1-.36,1.52,3.06,3.06,0,0,1-1,1.18,3.28,3.28,0,0,1-1.55.54q-0.58.06-2.79,0.08h-3.9V326.94Zm2.31,1.91v2.65h1.52q1.35,0,1.68,0a1.53,1.53,0,0,0,.93-0.41,1.21,1.21,0,0,0,.34-0.89,1.26,1.26,0,0,0-.29-0.86,1.33,1.33,0,0,0-.87-0.4q-0.34,0-2,0H351Zm0,4.55v3.06h2.14a10.47,10.47,0,0,0,1.59-.07,1.43,1.43,0,0,0,.84-0.46,1.41,1.41,0,0,0,.32-1,1.49,1.49,0,0,0-.25-0.87,1.42,1.42,0,0,0-.72-0.52,7.86,7.86,0,0,0-2.05-.16H351Z" transform="translate(-73.02 -235.19)"/><path class="cls-16" d="M359.89,338.4V326.94h4.87a8.32,8.32,0,0,1,2.67.31,2.63,2.63,0,0,1,1.33,1.1,3.3,3.3,0,0,1,.5,1.8,3.06,3.06,0,0,1-.76,2.13,3.64,3.64,0,0,1-2.27,1.06,5.42,5.42,0,0,1,1.24,1,13.07,13.07,0,0,1,1.32,1.86l1.4,2.23h-2.77l-1.67-2.49a16.13,16.13,0,0,0-1.22-1.68,1.78,1.78,0,0,0-.7-0.48,3.81,3.81,0,0,0-1.16-.13H362.2v4.78h-2.31Zm2.31-6.61h1.71a8.84,8.84,0,0,0,2.08-.14,1.24,1.24,0,0,0,.65-0.48,1.49,1.49,0,0,0,.23-0.86,1.37,1.37,0,0,0-.31-0.93,1.42,1.42,0,0,0-.87-0.45q-0.28,0-1.69,0h-1.8v2.91Z" transform="translate(-73.02 -235.19)"/><path class="cls-16" d="M381.44,338.4h-2.52l-1-2.6h-4.58l-0.95,2.6h-2.45l4.46-11.45h2.45Zm-4.26-4.53-1.58-4.25-1.55,4.25h3.13Z" transform="translate(-73.02 -235.19)"/><path class="cls-16" d="M381.35,338.4v-2.09l6-7.43H382v-1.94h8.38v1.8l-6.27,7.73h6.52v1.93h-9.3Z" transform="translate(-73.02 -235.19)"/><path class="cls-16" d="M391.73,338.4V326.94H394V338.4h-2.31Z" transform="translate(-73.02 -235.19)"/><path class="cls-16" d="M396,338.4V327h2.31v9.43h5.75v1.93H396Z" transform="translate(-73.02 -235.19)"/><path class="cls-16" d="M405.31,338.4V326.94h2.31V338.4h-2.31Z" transform="translate(-73.02 -235.19)"/><path class="cls-16" d="M419.83,338.4h-2.52l-1-2.6h-4.58l-0.95,2.6h-2.45l4.46-11.45h2.45Zm-4.26-4.53L414,329.61l-1.55,4.25h3.13Z" transform="translate(-73.02 -235.19)"/><path class="cls-16" d="M420.76,338.4V326.94H423l4.69,7.65v-7.65h2.15V338.4h-2.32l-4.62-7.47v7.47h-2.15Z" transform="translate(-73.02 -235.19)"/><path class="cls-16" d="M440.23,326.94h2.3v7.25a7.42,7.42,0,0,1-.25,2.19,3.1,3.1,0,0,1-1.22,1.61,4,4,0,0,1-2.33.61,3.45,3.45,0,0,1-2.61-.95,3.89,3.89,0,0,1-.92-2.79l2.18-.25a3,3,0,0,0,.29,1.39,1.25,1.25,0,0,0,1.14.62,1.26,1.26,0,0,0,1.09-.44,3.48,3.48,0,0,0,.32-1.83v-7.4Z" transform="translate(-73.02 -235.19)"/><path class="cls-16" d="M444.61,338.4V326.94h2.31V338.4h-2.31Z" transform="translate(-73.02 -235.19)"/><path class="cls-16" d="M448.79,326.94h2.31v6.2a12.82,12.82,0,0,0,.09,1.91,1.85,1.85,0,0,0,.71,1.13,2.46,2.46,0,0,0,1.53.43,2.33,2.33,0,0,0,1.48-.4,1.59,1.59,0,0,0,.6-1,12.93,12.93,0,0,0,.1-1.95v-6.34h2.31v6a15.45,15.45,0,0,1-.19,2.91,3.23,3.23,0,0,1-.69,1.44,3.49,3.49,0,0,1-1.35.93,5.87,5.87,0,0,1-2.2.35,6.33,6.33,0,0,1-2.49-.38,3.56,3.56,0,0,1-1.34-1A3.15,3.15,0,0,1,449,336a13.89,13.89,0,0,1-.23-2.91v-6.11Z" transform="translate(-73.02 -235.19)"/><path class="cls-16" d="M468.3,326.94h2.3v7.25a7.39,7.39,0,0,1-.25,2.19,3.09,3.09,0,0,1-1.22,1.61,4,4,0,0,1-2.33.61,3.45,3.45,0,0,1-2.61-.95,3.89,3.89,0,0,1-.92-2.79l2.18-.25a3,3,0,0,0,.29,1.39,1.25,1.25,0,0,0,1.14.62,1.26,1.26,0,0,0,1.09-.44,3.47,3.47,0,0,0,.32-1.83v-7.4Z" transform="translate(-73.02 -235.19)"/><path class="cls-16" d="M472.67,338.4V326.94H475V338.4h-2.31Z" transform="translate(-73.02 -235.19)"/><path class="cls-16" d="M479.44,338.4v-9.52H476v-1.94h9.1v1.94h-3.39v9.52h-2.31Z" transform="translate(-73.02 -235.19)"/><path class="cls-16" d="M485.73,334.67l2.25-.22a2.75,2.75,0,0,0,.82,1.66,2.49,2.49,0,0,0,1.68.53,2.57,2.57,0,0,0,1.68-.47,1.41,1.41,0,0,0,.57-1.11,1,1,0,0,0-.24-0.69,1.91,1.91,0,0,0-.83-0.5q-0.41-.14-1.85-0.5a6.28,6.28,0,0,1-2.61-1.13,3,3,0,0,1-1.05-2.3,2.94,2.94,0,0,1,.5-1.64,3.11,3.11,0,0,1,1.43-1.16,5.73,5.73,0,0,1,2.25-.4,4.84,4.84,0,0,1,3.25.95,3.34,3.34,0,0,1,1.15,2.52l-2.31.1a2,2,0,0,0-.64-1.27,2.33,2.33,0,0,0-1.46-.39,2.64,2.64,0,0,0-1.58.41,0.83,0.83,0,0,0-.37.71,0.88,0.88,0,0,0,.34.7,6.08,6.08,0,0,0,2.13.77,11.2,11.2,0,0,1,2.5.82,3.23,3.23,0,0,1,1.27,1.16,3.61,3.61,0,0,1-.09,3.67,3.28,3.28,0,0,1-1.55,1.28,6.49,6.49,0,0,1-2.49.42,5,5,0,0,1-3.34-1A4.37,4.37,0,0,1,485.73,334.67Z" transform="translate(-73.02 -235.19)"/><path class="cls-16" d="M496.66,326.94H499v6.2a12.82,12.82,0,0,0,.09,1.91,1.86,1.86,0,0,0,.71,1.13,2.46,2.46,0,0,0,1.53.43,2.33,2.33,0,0,0,1.48-.4,1.59,1.59,0,0,0,.6-1,12.93,12.93,0,0,0,.1-1.95v-6.34h2.31v6a15.45,15.45,0,0,1-.19,2.91,3.23,3.23,0,0,1-.69,1.44,3.49,3.49,0,0,1-1.35.93,5.87,5.87,0,0,1-2.2.35,6.34,6.34,0,0,1-2.49-.38,3.56,3.56,0,0,1-1.34-1,3.16,3.16,0,0,1-.65-1.27,13.89,13.89,0,0,1-.23-2.91v-6.11Z" transform="translate(-73.02 -235.19)"/><path class="cls-16" d="M508.87,318.73v-2.9h1.23a2.11,2.11,0,0,1,.67.08,0.67,0.67,0,0,1,.34.28,0.84,0.84,0,0,1,.13.46,0.77,0.77,0,0,1-.19.54,0.92,0.92,0,0,1-.57.27,1.42,1.42,0,0,1,.31.24,3.35,3.35,0,0,1,.33.47l0.35,0.57h-0.7l-0.42-.63a4,4,0,0,0-.31-0.43,0.45,0.45,0,0,0-.18-0.12,1,1,0,0,0-.29,0h-0.12v1.21h-0.58Zm0.58-1.67h0.43a2.27,2.27,0,0,0,.53,0,0.32,0.32,0,0,0,.16-0.12,0.38,0.38,0,0,0,.06-0.22,0.35,0.35,0,0,0-.08-0.24,0.36,0.36,0,0,0-.22-0.11h-0.88v0.74Z" transform="translate(-73.02 -235.19)"/><circle class="cls-17" cx="437.02" cy="82.09" r="2.78"/></svg>